<?xml version="1.0" encoding="UTF-8"?>
<svg width="980" height="240" viewBox="0 0 980 240" fill="none" xmlns="http://www.w3.org/2000/svg" role="img" aria-label="RBC Excellence Logo">
  <defs>
    <linearGradient id="g" x1="28" y1="20" x2="212" y2="220" gradientUnits="userSpaceOnUse">
      <stop offset="0" stop-color="#6366F1"/>
      <stop offset="0.55" stop-color="#8B5CF6"/>
      <stop offset="1" stop-color="#10B981"/>
    </linearGradient>
  </defs>

  <!-- Mark -->
  <g transform="translate(26 18)">
    <path d="M96 0L192 54V166L96 220L0 166V54L96 0Z" fill="url(#g)"/>
    <path d="M96 22L172 66V154L96 198L20 154V66L96 22Z" fill="#0B1220" opacity="0.55"/>
    <g fill="#F1F5F9">
      <rect x="54" y="90" width="16" height="68" rx="8" opacity="0.95"/>
      <rect x="84" y="70" width="16" height="88" rx="8" opacity="0.95"/>
      <rect x="114" y="98" width="16" height="60" rx="8" opacity="0.95"/>
    </g>
    <path d="M92 54C108 54 120 61 132 74" stroke="#F1F5F9" stroke-width="9" stroke-linecap="round" opacity="0.85"/>
    <path d="M140 82L137 66L122 70" stroke="#F1F5F9" stroke-width="9" stroke-linecap="round" stroke-linejoin="round" opacity="0.85"/>
  </g>

  <!-- Wordmark (uses your site font stack) -->
  <g transform="translate(270 84)">
    <text x="0" y="56" font-family="Inter, -apple-system, BlinkMacSystemFont, 'Segoe UI', sans-serif" font-size="72" font-weight="800" fill="#F1F5F9" letter-spacing="0.5">
      RBC
      <tspan font-weight="800" fill="#6366F1">Excellence</tspan>
    </text>
    <text x="2" y="104" font-family="Inter, -apple-system, BlinkMacSystemFont, 'Segoe UI', sans-serif" font-size="22" font-weight="500" fill="#94A3B8">
      Live-Preise • Marktinfos • Tools
    </text>
  </g>
</svg>
